<svg xmlns="http://www.w3.org/2000/svg" xmlns:xlink="http://www.w3.org/1999/xlink" width="458.71" height="321.18" viewBox="0 0 458.71 321.18"><defs><style>.cls-1{fill:none;}.cls-2{fill:#1a1a1a;}.cls-3{opacity:0.7;}.cls-4{clip-path:url(#clip-path);}.cls-5,.cls-6{isolation:isolate;}.cls-5{font-size:18.72px;font-family:Magilio-Regular, Magilio;}.cls-5,.cls-7,.cls-8{fill:#fff;}.cls-8{font-size:9px;font-family:Poppins-Medium, Poppins;font-weight:500;}.cls-9{font-size:11px;font-family:Poppins-SemiBold, Poppins;font-weight:600;}.cls-10,.cls-9{fill:#fcee21;}</style><clipPath id="clip-path"><rect class="cls-1" x="143.73" y="56.93" width="197.57" height="202.04"/></clipPath></defs><g id="Layer_2" data-name="Layer 2"><g id="Layer_1-2" data-name="Layer 1"><rect class="cls-2" width="458.71" height="321.18"/><g class="cls-3"><g class="cls-4"><image width="840" height="859" transform="translate(143.73 56.93) scale(0.22)" xlink:href="../../../../../Library/Mobile%20Documents/com~apple~CloudDocs/mint.png"/></g></g><g id="Layer_2-2" data-name="Layer 2"><g id="Layer_1-2-2" data-name="Layer 1-2"><text class="cls-5" transform="translate(191.82 47.03)">Pickwick</text><image class="cls-6" width="497" height="442" transform="translate(218.24 27.16) rotate(-12.54) scale(0.03)" xlink:href="../../../../Icon%20awesome-leaf.png"/><path class="cls-7" d="M219.89,38a2.48,2.48,0,0,1,.3-1,4.1,4.1,0,0,1,.56-.72c.42-.51.32-.42.86-1.07l.74-.88-1.47,3.49"/></g></g><text/><text class="cls-8" transform="translate(92.03 291.95) scale(0.94 1)"><tspan xml:space="preserve">20 bags  </tspan></text><text class="cls-9" transform="translate(150.17 236.67) scale(0.94 1)">LEMON MYRTLE, EUCALYPTUS, <tspan x="24.62" y="13.2">LIQOURICE &amp; GINGER</tspan></text><image width="840" height="859" transform="translate(79.88 87.13) scale(0.17)" xlink:href="../../../../../Library/Mobile%20Documents/com~apple~CloudDocs/ginger.png"/><text class="cls-8" transform="translate(289.34 293.28) scale(0.94 1)">NET WT. 37.5G/13OZ</text><image width="833" height="708" transform="matrix(0.28, 0.1, -0.1, 0.28, 214.54, 8.02)" xlink:href="../../../../lemonmyrtle.png"/><polyline class="cls-2" points="32.94 181.97 88.27 174.37 160.37 168.37 270.74 153.7 415.52 139.04 415.52 220.8 29.19 232.54"/><path class="cls-7" d="M95.52,194.84V179.38a6.56,6.56,0,0,0-.25-2,9.75,9.75,0,0,0-.53-1.32c-.19-.35-.37-.64-.53-.88a1.2,1.2,0,0,1-.25-.7.7.7,0,0,1,.22-.48,1,1,0,0,1,.42-.31,2.61,2.61,0,0,1,.92-.19c2.48-.13,5-.28,7.43-.43a2.12,2.12,0,0,1,.78.07,1.55,1.55,0,0,1,.53.23.56.56,0,0,1,.25.52,1.4,1.4,0,0,1-.25.76,8.31,8.31,0,0,0-.53,1,10,10,0,0,0-.53,1.41,7.14,7.14,0,0,0-.25,2.07V195a7.11,7.11,0,0,0,.25,2.06,9.43,9.43,0,0,0,.53,1.4,9.85,9.85,0,0,0,.53,1,1.37,1.37,0,0,1,.25.75.59.59,0,0,1-.17.43,1.2,1.2,0,0,1-.47.33,2.33,2.33,0,0,1-.92.1c-2.48-.1-5-.22-7.43-.34a2.25,2.25,0,0,1-.78-.16,1.62,1.62,0,0,1-.53-.29.64.64,0,0,1-.25-.52,1.13,1.13,0,0,1,.25-.7,8,8,0,0,0,.53-.89,9.07,9.07,0,0,0,.53-1.31A6.61,6.61,0,0,0,95.52,194.84Z"/><path class="cls-7" d="M106.13,200.52c0-.3.19-.53.56-.71a11.63,11.63,0,0,0,1.23-.69,5,5,0,0,0,1.26-1.25,4.31,4.31,0,0,0,.64-2.34V178.4a4.16,4.16,0,0,0-.64-2.34,4.81,4.81,0,0,0-1.26-1.19,12.87,12.87,0,0,0-1.23-.66c-.37-.16-.56-.39-.56-.69a.52.52,0,0,1,.17-.34,1.19,1.19,0,0,1,1-.38l4.41-.31a8.19,8.19,0,0,1,4.25.76,11.23,11.23,0,0,1,3.4,2.59,17.91,17.91,0,0,1,2.66,3.91,40.1,40.1,0,0,1,2,4.69c.57,1.63,1.07,3.25,1.48,4.86s.75,3.08,1,4.41.51,2.46.7,3.37a9.81,9.81,0,0,0,.44,1.73q2.75-13.27,5.48-27a.88.88,0,0,1,.22-.55,1.22,1.22,0,0,1,.42-.38,2.29,2.29,0,0,1,.92-.24c2.48-.22,5-.46,7.43-.7,1-.1,1.56.2,1.56.91a1.68,1.68,0,0,1-.25.87c-.16.31-.34.69-.53,1.13a14.27,14.27,0,0,0-.53,1.63,9.44,9.44,0,0,0-.25,2.38V195a9.68,9.68,0,0,0,.25,2.36,13.17,13.17,0,0,0,.53,1.58c.19.42.36.78.53,1.08a1.57,1.57,0,0,1,.25.85.83.83,0,0,1-.16.5,1.25,1.25,0,0,1-.48.39,2,2,0,0,1-.92.16l-7.43-.08c-1,0-1.56-.36-1.56-1a1.56,1.56,0,0,1,.25-.82,10.13,10.13,0,0,0,.53-1.05,10.3,10.3,0,0,0,.53-1.53,8.8,8.8,0,0,0,.25-2.31V177.35a11.67,11.67,0,0,0-.08-1.38c-.06-.41-.12-.78-.2-1.1q-2.65,13.24-5.3,26a1,1,0,0,1-.56.69,2.34,2.34,0,0,1-1.06.2l-6.26-.13a1.37,1.37,0,0,1-1.12-.56,5.12,5.12,0,0,1-.67-1.69c-.15-.6-.34-1.54-.58-2.83s-.53-2.71-.84-4.27-.69-3.16-1.12-4.8a34.56,34.56,0,0,0-1.45-4.47,15.53,15.53,0,0,0-1.73-3.26,2.43,2.43,0,0,0-2-1.21v17a4.86,4.86,0,0,0,.7,2.38,5.11,5.11,0,0,0,1.26,1.34q.66.47,1.2.78a.88.88,0,0,1,.53.76.56.56,0,0,1-.12.33.86.86,0,0,1-.33.22,1.52,1.52,0,0,1-.67.09c-2.33-.07-4.65-.15-7-.24C106.5,201.18,106.13,201,106.13,200.52Z"/><path class="cls-7" d="M145.28,201.23a1,1,0,0,1,.56-.83,10.45,10.45,0,0,0,1.23-.84,5.37,5.37,0,0,0,1.26-1.47,5.65,5.65,0,0,0,.64-2.7V175.82a5.21,5.21,0,0,0-.64-2.66,4.63,4.63,0,0,0-1.26-1.33,10.68,10.68,0,0,0-1.23-.72.87.87,0,0,1-.56-.78.66.66,0,0,1,.17-.39,1.16,1.16,0,0,1,1-.46l4.41-.45a7.24,7.24,0,0,1,4.25.77,11.22,11.22,0,0,1,3.4,2.88,20.32,20.32,0,0,1,2.66,4.39,48.39,48.39,0,0,1,2,5.3c.57,1.83,1.07,3.66,1.48,5.48s.75,3.47,1,5,.51,2.77.7,3.81a12.63,12.63,0,0,0,.45,1.94q2.73-15.12,5.47-30.73a1.2,1.2,0,0,1,.22-.63,1.4,1.4,0,0,1,.42-.43,2.17,2.17,0,0,1,.92-.28l7.43-.87c1.05-.13,1.57.21,1.57,1a2.22,2.22,0,0,1-.26,1c-.16.35-.34.78-.53,1.28a17.23,17.23,0,0,0-.53,1.84,12.58,12.58,0,0,0-.25,2.68V194a11.56,11.56,0,0,0,.25,2.65,15.56,15.56,0,0,0,.53,1.77c.19.48.37.88.53,1.2a2.07,2.07,0,0,1,.26,1,1.06,1.06,0,0,1-.17.57,1.49,1.49,0,0,1-.48.45,1.83,1.83,0,0,1-.92.19l-7.43.1q-1.56,0-1.56-1.14a2.17,2.17,0,0,1,.25-.94,10.84,10.84,0,0,0,.53-1.19,12,12,0,0,0,.53-1.75,11.31,11.31,0,0,0,.25-2.61V174.13a10.83,10.83,0,0,0-.08-1.56c-.06-.46-.12-.88-.2-1.24q-2.64,15-5.3,29.55a1.13,1.13,0,0,1-.56.8,2.22,2.22,0,0,1-1.06.26l-6.26,0a1.25,1.25,0,0,1-1.11-.6,5.9,5.9,0,0,1-.67-1.91c-.16-.67-.35-1.74-.59-3.19s-.52-3.07-.84-4.84-.69-3.58-1.11-5.44a45.35,45.35,0,0,0-1.46-5.05,17.56,17.56,0,0,0-1.73-3.67,2.28,2.28,0,0,0-2-1.33v19.4a6,6,0,0,0,.7,2.7,5.26,5.26,0,0,0,1.26,1.48c.45.34.84.63,1.2.85a1,1,0,0,1,.53.85.76.76,0,0,1-.11.38,1.05,1.05,0,0,1-.34.26,1.46,1.46,0,0,1-.67.12h-7C145.66,202,145.29,201.73,145.28,201.23Z"/><path class="cls-7" d="M193.48,164.15a1.69,1.69,0,0,1,.79.06,1.43,1.43,0,0,1,.53.28.88.88,0,0,1,.25.7,2.54,2.54,0,0,1-.25,1,13.32,13.32,0,0,0-.53,1.32,16.12,16.12,0,0,0-.53,1.91,12.81,12.81,0,0,0-.26,2.78v19.67a8,8,0,0,0,.65,3.35,6.93,6.93,0,0,0,1.7,2.38,6.63,6.63,0,0,0,2.43,1.42,8.19,8.19,0,0,0,2.76.42,7.94,7.94,0,0,0,2.74-.57,7,7,0,0,0,2.4-1.59,8,8,0,0,0,1.71-2.58,9.24,9.24,0,0,0,.64-3.54V170.13a7.1,7.1,0,0,0-.64-3.16,5.27,5.27,0,0,0-1.26-1.58,12.07,12.07,0,0,0-1.23-.85,1,1,0,0,1-.56-.92.82.82,0,0,1,.17-.46,1.1,1.1,0,0,1,.95-.56l7-.89a1.23,1.23,0,0,1,.56,0,.7.7,0,0,1,.56.72,1.42,1.42,0,0,1-.53,1.09,13.86,13.86,0,0,0-1.2,1.16,7.31,7.31,0,0,0-1.26,1.88,8.91,8.91,0,0,0-.7,3.33v21.16a9.92,9.92,0,0,1-3.8,8.11,12.21,12.21,0,0,1-3.88,2.08,15.08,15.08,0,0,1-4.44.74,15.62,15.62,0,0,1-4.47-.56,12.45,12.45,0,0,1-3.91-1.84,9.4,9.4,0,0,1-2.76-3.06,8.66,8.66,0,0,1-1-4.34V173a11.47,11.47,0,0,0-.79-4.42,10.12,10.12,0,0,0-.53-1.16,2.1,2.1,0,0,1-.25-.94,1.17,1.17,0,0,1,.23-.65,1.19,1.19,0,0,1,.41-.44,2,2,0,0,1,.93-.3Z"/><path class="cls-7" d="M215.71,200.19a1.24,1.24,0,0,1,.56-1,14.25,14.25,0,0,0,1.23-1.06,6.62,6.62,0,0,0,1.26-1.85,8.18,8.18,0,0,0,.64-3.31V169a7.48,7.48,0,0,0-.64-3.25,5.24,5.24,0,0,0-1.26-1.62,10.06,10.06,0,0,0-1.23-.88,1.05,1.05,0,0,1-.56-.95.9.9,0,0,1,.17-.48,1.09,1.09,0,0,1,1-.57l4.41-.57a7.68,7.68,0,0,1,4.69.92,17.42,17.42,0,0,1,4.42,3.49,35.83,35.83,0,0,1,4.07,5.35,71.4,71.4,0,0,1,3.63,6.4q1.68,3.31,3.1,6.65c.95,2.22,1.76,4.24,2.43,6V166.4a8.23,8.23,0,0,0-.64-3.46,5.67,5.67,0,0,0-1.26-1.74,8.78,8.78,0,0,0-1.23-.94,1.14,1.14,0,0,1-.55-1,1,1,0,0,1,.16-.51,1.09,1.09,0,0,1,.95-.6l7-.88c.74-.1,1.11.19,1.11.84a1.57,1.57,0,0,1-.53,1.18c-.35.33-.75.75-1.2,1.25a8.22,8.22,0,0,0-1.26,2,10.19,10.19,0,0,0-.69,3.63v25.59a9.45,9.45,0,0,0,.69,3.5,7,7,0,0,0,1.26,1.89q.68.66,1.2,1.08a1.33,1.33,0,0,1,.42,1.59,1.53,1.53,0,0,1-.33.35,1.31,1.31,0,0,1-.67.17l-8.44.18a1.18,1.18,0,0,1-1.11-.73,8.54,8.54,0,0,1-.68-2.35,25.38,25.38,0,0,0-1.22-3.95q-1-2.69-2.49-5.91c-1-2.14-2.07-4.34-3.24-6.57s-2.35-4.25-3.52-6a30.94,30.94,0,0,0-3.35-4.34c-1.06-1.11-2-1.62-2.71-1.54v23.73a8.36,8.36,0,0,0,.7,3.29,6,6,0,0,0,1.26,1.78,14.36,14.36,0,0,0,1.2,1,1.22,1.22,0,0,1,.53,1,1.15,1.15,0,0,1-.11.47,1.19,1.19,0,0,1-.34.33,1.29,1.29,0,0,1-.67.16l-7,.16C216.08,201.09,215.71,200.8,215.71,200.19Z"/><path class="cls-7" d="M252.35,190.87V166.1a16.36,16.36,0,0,0-.25-3.18,20,20,0,0,0-.53-2.08c-.19-.56-.36-1-.53-1.4a2.68,2.68,0,0,1-.25-1.12,1.56,1.56,0,0,1,.22-.77,1.6,1.6,0,0,1,.42-.52,1.78,1.78,0,0,1,.92-.33l7.43-.92a1.41,1.41,0,0,1,.78.09,1.32,1.32,0,0,1,.53.35,1.15,1.15,0,0,1,.25.83,3.19,3.19,0,0,1-.25,1.2c-.16.43-.34.94-.53,1.56s-.36,1.36-.53,2.24a18,18,0,0,0-.25,3.29v25.22a17.22,17.22,0,0,0,.25,3.25,20,20,0,0,0,.53,2.18c.19.58.36,1.08.53,1.47a3,3,0,0,1,.25,1.17,1.43,1.43,0,0,1-.16.71,1.68,1.68,0,0,1-.48.55,1.61,1.61,0,0,1-.92.24l-7.43.14a1.5,1.5,0,0,1-.78-.17,1.45,1.45,0,0,1-.53-.42,1.2,1.2,0,0,1-.25-.8,2.88,2.88,0,0,1,.25-1.15c.17-.4.34-.89.53-1.48a19.55,19.55,0,0,0,.53-2.16A17,17,0,0,0,252.35,190.87Z"/><path class="cls-10" d="M263.91,155.27q16.59-2,33.18-3.83a1,1,0,0,1,.7.1.47.47,0,0,1,.19.39,2.51,2.51,0,0,1-.08.56c-.06.22-.1.42-.14.6q-1.06,4.5-2.12,8.95a2.86,2.86,0,0,1-.39.51,2.16,2.16,0,0,1-.39.41.9.9,0,0,1-.51.22,1.16,1.16,0,0,1-.61-.16c-.3-.15-.53-.7-.7-1.64a20.79,20.79,0,0,0-.78-3,8.27,8.27,0,0,0-1.57-2.74,3.28,3.28,0,0,0-3-1l-1.95.21c-.83.09-1.27.86-1.34,2.32s-.12,3.37-.12,5.74v26.67a19.41,19.41,0,0,0,.79,5.75c.18.62.36,1.14.53,1.57a3.27,3.27,0,0,1,.25,1.24,1.39,1.39,0,0,1-1.57,1.56l-7.42.08a1.63,1.63,0,0,1-1.32-.64,1.32,1.32,0,0,1-.25-.85,3.25,3.25,0,0,1,.25-1.22c.17-.42.35-.94.53-1.55a19.33,19.33,0,0,0,.53-2.29,19.76,19.76,0,0,0,.26-3.4V163.67c0-1.14,0-2.19,0-3.16a23.89,23.89,0,0,0-.12-2.46,3.8,3.8,0,0,0-.42-1.53.88.88,0,0,0-.92-.46l-2,.23a4.23,4.23,0,0,0-3,1.58,10.45,10.45,0,0,0-1.57,2.89,21,21,0,0,0-.78,2.93,3.11,3.11,0,0,1-.7,1.75,1.06,1.06,0,0,1-.67.32c-.44,0-.85-.26-1.23-.91q-1-4-2.12-7.9a4.19,4.19,0,0,0-.14-.53,1.92,1.92,0,0,1-.08-.5.56.56,0,0,1,.19-.41A1.32,1.32,0,0,1,263.91,155.27Z"/><path class="cls-10" d="M299.66,152.76a1.82,1.82,0,0,1,.22-.85,1.52,1.52,0,0,1,.42-.57,1.59,1.59,0,0,1,.92-.34q11.53-1.2,23.07-2.23c.67-.06,1,.12,1,.54a3.28,3.28,0,0,1-.31,1.23q-1.06,2.36-2.12,4.69a3.74,3.74,0,0,1-.39.54,2.69,2.69,0,0,1-.4.43.85.85,0,0,1-.5.22,1.18,1.18,0,0,1-.61-.17,1.75,1.75,0,0,1-.7-1,6.92,6.92,0,0,0-.78-1.53,4.37,4.37,0,0,0-1.57-1.34,5.43,5.43,0,0,0-3-.38l-4.75.44q-.78.08-1.11,2.4a43,43,0,0,0-.34,6.07v13.57a6.9,6.9,0,0,0,3.24-1,7,7,0,0,0,1.73-1.69c.41-.59.75-1.12,1-1.59a1.23,1.23,0,0,1,1-.73.77.77,0,0,1,.45.12,1.34,1.34,0,0,1,.31.42,2.18,2.18,0,0,1,.14.85v9a2.08,2.08,0,0,1-.12.72c-.15.48-.41.73-.78.74a1.11,1.11,0,0,1-1-.69,14.77,14.77,0,0,0-1-1.53,6.27,6.27,0,0,0-1.73-1.54,6,6,0,0,0-3.24-.68V189a42.38,42.38,0,0,0,.34,6c.22,1.53.59,2.3,1.11,2.3H316a5.67,5.67,0,0,0,3.52-1,11.48,11.48,0,0,0,2.37-2.35c.66-.87,1.21-1.66,1.68-2.36s.92-1.06,1.37-1.06a.69.69,0,0,1,.5.22c.3.29.38.85.25,1.68a15.21,15.21,0,0,1-.64,2.56c-.3.87-.74,2-1.34,3.42a1.9,1.9,0,0,1-1.31,1.11,6.3,6.3,0,0,1-1.54.23q-9.83-.13-19.66-.13a1.42,1.42,0,0,1-.78-.21,1.48,1.48,0,0,1-.78-1.38,3.6,3.6,0,0,1,.25-1.29c.17-.44.34-1,.53-1.63a23.74,23.74,0,0,0,.53-2.4,21.11,21.11,0,0,0,.25-3.59V161.5a20.65,20.65,0,0,0-.25-3.56,22.21,22.21,0,0,0-.53-2.34c-.19-.63-.36-1.16-.53-1.58A3.33,3.33,0,0,1,299.66,152.76Z"/><path class="cls-10" d="M327.47,198.23a2.33,2.33,0,0,1,.56-1.39c.37-.49.81-1.08,1.31-1.79s1-1.56,1.62-2.57a15.18,15.18,0,0,0,1.43-3.66q4.58-16.65,9.16-33.88c-.08-.33-.15-.65-.23-1a4.76,4.76,0,0,0-.47-1.37l-.59-1.06a8.49,8.49,0,0,1-.47-1,3.33,3.33,0,0,1-.2-1.26,1.78,1.78,0,0,1,.48-1.32,1.75,1.75,0,0,1,1.14-.54l5.08-.35c.49,0,.83.3,1,1s.46,1.62.75,2.78q4.56,18.79,9.11,38.3a32.59,32.59,0,0,0,1.08,3.89c.39,1.08.75,2,1.07,2.78l.78,1.95a4.26,4.26,0,0,1,.3,1.5,2.11,2.11,0,0,1-.16.85,1.84,1.84,0,0,1-.48.65,1.25,1.25,0,0,1-.92.22c-2.48-.12-4.95-.23-7.43-.33-1,0-1.56-.66-1.56-1.84a6.28,6.28,0,0,1,.17-1.45,16.5,16.5,0,0,0,.27-1.83,16.28,16.28,0,0,0,0-2.66,25,25,0,0,0-.58-3.89c-.52-2.31-1.05-4.62-1.57-6.91a4.11,4.11,0,0,0-.5-1.38,1.23,1.23,0,0,0-1.17-.53q-4.5,0-9,.06a1,1,0,0,0-.87.57,5.42,5.42,0,0,0-.48,1.24c-.59,2.28-1.19,4.54-1.78,6.8a9.52,9.52,0,0,0-.28,3.61,11.21,11.21,0,0,0,.67,2.62,14.36,14.36,0,0,0,.92,1.88,2.86,2.86,0,0,1,.47,1.47,1.81,1.81,0,0,1-.16.81,1.76,1.76,0,0,1-.48.63,1.3,1.3,0,0,1-.92.23L329,200C328,199.93,327.47,199.35,327.47,198.23ZM338,177.73c2.7,0,5.4-.08,8.1-.1a.56.56,0,0,0,.64-.58,2.71,2.71,0,0,0-.09-1q-2.08-8.76-4.18-17.36-2.43,9-4.86,17.87a1.54,1.54,0,0,0,0,.79A.4.4,0,0,0,338,177.73Z"/></g></g></svg>