<svg xmlns="http://www.w3.org/2000/svg" width="95.268" height="95.247" viewBox="0 0 95.268 95.247"><path d="M47.64,25.441a24.42,24.42,0,1,0,24.42,24.42A24.382,24.382,0,0,0,47.64,25.441Zm0,40.3A15.876,15.876,0,1,1,63.516,49.861,15.905,15.905,0,0,1,47.64,65.738Zm31.115-41.3a5.7,5.7,0,1,1-5.7-5.7A5.683,5.683,0,0,1,78.755,24.442Zm16.174,5.781c-.361-7.63-2.1-14.389-7.694-19.957C81.666,4.7,74.908,2.955,67.278,2.572c-7.864-.446-31.434-.446-39.3,0-7.609.361-14.367,2.1-19.957,7.672S.712,22.572.329,30.2c-.446,7.864-.446,31.434,0,39.3.361,7.63,2.1,14.389,7.694,19.957S20.35,96.768,27.98,97.15c7.864.446,31.434.446,39.3,0,7.63-.361,14.389-2.1,19.957-7.694C92.8,83.888,94.546,77.129,94.928,69.5c.446-7.864.446-31.413,0-39.276ZM84.769,77.937a16.073,16.073,0,0,1-9.054,9.054C69.446,89.478,54.568,88.9,47.64,88.9s-21.827.553-28.076-1.913a16.073,16.073,0,0,1-9.054-9.054C8.023,71.667,8.6,56.79,8.6,49.861S8.044,28.034,10.51,21.786a16.073,16.073,0,0,1,9.054-9.054c6.27-2.487,21.147-1.913,28.076-1.913s21.827-.553,28.076,1.913a16.073,16.073,0,0,1,9.054,9.054c2.487,6.27,1.913,21.147,1.913,28.076S87.256,71.689,84.769,77.937Z" transform="translate(0.005 -2.238)"/></svg>